# generated from PmQm by Jehee Lee
:FULLY-SPECIFIED
:DEGREES
443
root 19.80008422 38.40759866 14.81189464 -176.3972237 -50.69105701 177.1754198
RightUpLeg -2.165517553 -4.33470348 -4.997887783
RightLeg 43.06079397 0 0
RightFoot -4.442463275 30.50654607 -19.61587992
RightToes 2.32829e-010 -1.59028e-015 9.93923e-017
Spine -10.80497685 3.879197811 6.711755758
Spine1 14.21047052 5.898573178 -10.27596106
HEad -9.356503806 -4.691262502 2.837931317
LeftShoulder1 9.93923e-017 0 1.22299e-017
LeftArm -11.25042111 49.76714594 -68.94589826
LeftForeArm -6.340785174 -3.82537775 -5.561190529
LeftHand 1.0097 7.20765 -5.05441
RightShoulder 1.98785e-016 -4.96962e-017 1.55301e-017
RightArm 28.6562778 -30.59627422 88.18877302
RightForeArm -51.86194915 22.11632745 -20.82756746
RightHand 1.16096 -10.3732 -5.78301
LeftUpLeg -26.56621574 -2.402294993 -0.7744485522
LeftLeg 12.50974049 0 0
LeftFoot 4.105435109 -0.5807757204 -4.137055088
LeftToes 8.82235e-011 9.04645e-011 1.87288e-011
444
root 18.96131486 38.40860858 13.7230535 -174.4924062 -50.35582005 174.7345124
RightUpLeg -7.059243491 -3.199772612 -6.93198393
RightLeg 52.46693476 -2.642846556 -5.42085603
RightFoot 8.501249982 32.1434769 -10.23788952
RightToes 2.32829e-010 -1.59028e-015 9.93923e-017
Spine -8.615737823 2.739157942 2.825787768
Spine1 13.05120699 4.637527439 -9.763503017
HEad -10.24917151 -4.023258346 2.809232198
LeftShoulder1 9.93923e-017 0 1.22299e-017
LeftArm -9.244655508 44.94620471 -71.2246392
LeftForeArm -7.754399472 -4.268921786 -6.17987125
LeftHand 0.992905 7.03592 -5.03757
RightShoulder 1.98785e-016 -4.96962e-017 1.55301e-017
RightArm 26.74857932 -33.49647376 89.80611261
RightForeArm -50.5587284 20.74354785 -16.03337121
RightHand 1.09086 -10.2491 -4.27313
LeftUpLeg -25.95331447 -2.184928909 -0.7001885781
LeftLeg 18.06275529 0 0
LeftFoot 0.2415608677 -2.416990988 -4.366028029
LeftToes 8.82235e-011 9.04645e-011 1.87288e-011
445
root 18.10594958 38.53700323 12.65431667 -173.6984787 -49.21841427 173.5503809
RightUpLeg -11.53101011 -1.376848739 -7.457537425
RightLeg 59.56034091 -3.751841205 -10.40136795
RightFoot 14.21462455 28.8341032 -4.433902137
RightToes 2.32829e-010 -1.59028e-015 9.93923e-017
Spine -7.156561866 2.192774118 -0.3495186524
Spine1 12.58159011 3.779607961 -8.859403652
HEad -10.95362685 -3.058958446 2.324656645
LeftShoulder1 9.93923e-017 0 1.22299e-017
LeftArm -6.599681884 39.93016714 -73.60455984
LeftForeArm -10.45827374 -5.325537262 -6.581468644
LeftHand 0.970123 6.82072 -4.29005
RightShoulder 1.98785e-016 -4.96962e-017 1.55301e-017
RightArm 20.68931634 -36.20283342 90.30526425
RightForeArm -43.36041459 19.73561349 -9.223474288
RightHand 1.03939 -10.2002 -2.94224
LeftUpLeg -24.1738546 -2.114304546 0.03133888396
LeftLeg 21.28500206 0 0
LeftFoot -2.109077394 -2.990982225 -5.166230394
LeftToes 8.82235e-011 9.04645e-011 1.87288e-011
446
root 17.17066643 38.80596671 11.51258795 -174.0774539 -48.59275115 173.7877125
RightUpLeg -15.23882234 -0.4048065625 -6.848990541
RightLeg 63.30950355 -2.835095497 -12.53399704
RightFoot 12.90255025 24.76761883 -2.353470882
RightToes 2.32829e-010 -1.59028e-015 9.93923e-017
Spine -6.580303668 1.426715935 -2.500291036
Spine1 12.02732856 2.53177302 -7.099113957
HEad -10.67315642 -1.707370066 1.845580681
LeftShoulder1 9.93923e-017 0 1.22299e-017
LeftArm -3.809392417 36.06141893 -75.4896582
LeftForeArm -14.22375103 -8.752497789 -5.514277912
LeftHand 0.942205 6.57551 -3.70458
RightShoulder 1.98785e-016 -4.96962e-017 1.55301e-017
RightArm 18.87628383 -39.36248856 90.13882366
RightForeArm -38.50217185 18.41094486 -4.684044826
RightHand 1.03827 -10.3208 -2.49664
LeftUpLeg -21.19294055 -1.852055775 1.212308213
LeftLeg 21.93564734 0 0
LeftFoot -3.35130091 -3.780912833 -6.290127819
LeftToes 8.82235e-011 9.04645e-011 1.87288e-011
447
root 16.2027331 39.10022876 10.36137172 -175.0094876 -48.90745634 174.7679369
RightUpLeg -18.29506635 -0.5060571023 -5.526786876
RightLeg 63.87723884 -0.5524848006 -11.04542371
RightFoot 8.722083653 21.03977223 -2.041407422
RightToes 2.32829e-010 -1.59028e-015 9.93923e-017
Spine -6.315187585 0.1881540979 -4.080899583
Spine1 11.21637537 0.7403442811 -4.786584006
HEad -9.704885422 -0.1793111848 1.644131506
LeftShoulder1 9.93923e-017 0 1.22299e-017
LeftArm 3.522023335 33.1756349 -76.94828246
LeftForeArm -23.2206879 -14.72302294 -1.994601734
LeftHand 0.92793 6.45217 -3.57146
RightShoulder 1.98785e-016 -4.96962e-017 1.55301e-017
RightArm 20.91748875 -43.21982022 89.5968458
RightForeArm -37.60342559 17.83731527 -3.186553323
RightHand 1.04716 -10.4116 -2.45404
LeftUpLeg -17.76179608 -1.444604864 2.582033841
LeftLeg 21.12292089 0 0
LeftFoot -4.250523701 -5.432857204 -7.297117125
LeftToes 8.82235e-011 9.04645e-011 1.87288e-011
448
root 15.25181321 39.3243055 9.266835486 -175.9658784 -49.31655401 175.7858057
RightUpLeg -21.10377156 -0.7657648673 -4.157465665
RightLeg 61.98334005 1.764746646 -8.163698879
RightFoot 5.133743504 17.69725995 -1.57857789
RightToes 2.32829e-010 -1.59028e-015 9.93923e-017
Spine -6.224798102 -1.022952818 -5.439737597
Spine1 10.74555347 -0.9501929401 -2.762801687
HEad -8.939168264 1.155813541 1.581018609
LeftShoulder1 9.93923e-017 0 1.22299e-017
LeftArm 16.56862281 30.40327029 -78.14285115
LeftForeArm -38.25626847 -20.89606089 4.907431017
LeftHand 0.925915 6.44464 -3.3863
RightShoulder 1.98785e-016 -4.96962e-017 1.55301e-017
RightArm 22.97534893 -47.46687037 88.38872627
RightForeArm -38.47724037 17.9757794 -3.561399452
RightHand 1.02044 -10.2376 -2.25741
LeftUpLeg -14.48358684 -0.7380835977 3.831191068
LeftLeg 19.97455597 0 0
LeftFoot -4.873002665 -7.37721205 -8.027457146
LeftToes 8.82235e-011 9.04645e-011 1.87288e-011
449
root 14.30802345 39.45480002 8.216452116 -176.6938551 -49.4264667 176.5157973
RightUpLeg -23.72245213 -0.9333034915 -3.019461258
RightLeg 58.12763083 3.380040331 -5.823880859
RightFoot 2.115320504 14.66400034 -0.4616404881
RightToes 2.32829e-010 -1.59028e-015 9.93923e-017
Spine -6.476834001 -1.996266867 -6.638626845
Spine1 10.81716567 -2.272585215 -1.176215133
HEad -8.783275448 2.163025137 1.510925589
LeftShoulder1 9.93923e-017 0 1.22299e-017
LeftArm 28.24911652 27.30387139 -78.72481338
LeftForeArm -50.97349422 -24.47461644 12.78925711
LeftHand 0.913312 6.34459 -3.16304
RightShoulder 1.98785e-016 -4.96962e-017 1.55301e-017
RightArm 24.95092971 -51.58391205 86.49370238
RightForeArm -40.64563351 18.51131628 -5.096103606
RightHand 0.9969 -10.0451 -2.20697
LeftUpLeg -11.37678451 0.1862275794 4.866225312
LeftLeg 18.82725664 0 0
LeftFoot -5.267370004 -9.143391013 -8.491792997
LeftToes 8.82235e-011 9.04645e-011 1.87288e-011
450
root 13.35724885 39.52211482 7.194524651 -177.2753875 -49.72726299 177.0883259
RightUpLeg -25.99231486 -1.624141948 -2.011596617
RightLeg 52.48197636 4.35907718 -4.220719611
RightFoot -0.513272781 12.09044012 0.8618674976
RightToes 2.32829e-010 -1.59028e-015 9.93923e-017
Spine -6.788023987 -2.989844041 -7.723762149
Spine1 10.93477683 -3.545371936 0.5403474714
HEad -8.843318695 2.986940174 1.472876773
LeftShoulder1 9.93923e-017 0 1.22299e-017
LeftArm 31.88723707 23.92340025 -78.45912758
LeftForeArm -53.63688285 -26.43298621 17.1456967
LeftHand 0.89027 6.12658 -3.34082
RightShoulder 1.98785e-016 -4.96962e-017 1.55301e-017
RightArm 27.40953019 -55.24304649 84.25524685
RightForeArm -43.19013309 19.08278336 -7.056815929
RightHand 1.02418 -10.1508 -2.66158
LeftUpLeg -8.264182883 0.8537008232 5.764617884
LeftLeg 17.3836654 0 0
LeftFoot -5.756269737 -10.70884001 -8.787818142
LeftToes 8.82235e-011 9.04645e-011 1.87288e-011
451
root 12.39501157 39.52645185 6.21768073 -177.7286624 -50.50512759 177.562202
RightUpLeg -27.79290913 -2.930598944 -1.131106164
RightLeg 45.12749179 4.999536769 -3.004387034
RightFoot -1.592198446 10.01768898 1.829470777
RightToes 2.32829e-010 -1.59028e-015 9.93923e-017
Spine -6.845519161 -4.022498645 -8.720262644
Spine1 10.81351879 -4.81636505 2.402248215
HEad -8.700458735 3.742787612 1.490087455
LeftShoulder1 9.93923e-017 0 1.22299e-017
LeftArm 30.01286693 20.50987836 -77.73300493
LeftForeArm -49.90317989 -28.37589464 18.07386607
LeftHand 0.874162 5.96507 -3.53657
RightShoulder 1.98785e-016 -4.96962e-017 1.55301e-017
RightArm 28.9357223 -58.30468862 81.8964138
RightForeArm -44.13277519 19.34946355 -8.402974779
RightHand 1.06596 -10.3388 -3.23031
LeftUpLeg -5.488246168 0.9099275288 6.493678918
LeftLeg 16.18876386 0 0
LeftFoot -6.759203928 -11.91394867 -8.788847443
LeftToes 8.82235e-011 9.04645e-011 1.87288e-011
452
root 11.37850877 39.4131 5.284300586 -177.7718899 -51.62364571 177.6469143
RightUpLeg -29.05899079 -3.983320715 -0.4951312141
RightLeg 36.26311988 5.2262078 -2.200689902
RightFoot -1.077637421 8.260026454 2.576934996
RightToes 2.32829e-010 -1.59028e-015 9.93923e-017
Spine -6.99225 -4.80394 -9.49489
Spine1 10.8103 -5.72047 3.70045
HEad -8.50494 4.3499 1.50706
LeftShoulder1 9.93923e-017 0 1.22299e-017
LeftArm 29.324 17.2202 -77.0933
LeftForeArm -48.1612 -29.8036 18.6995
LeftHand 0.872868 5.99207 -3.07255
RightShoulder 1.98785e-016 -4.96962e-017 1.55301e-017
RightArm 28.776 -60.6454 79.5323
RightForeArm -43.3166 19.3197 -8.73957
RightHand 1.06334 -10.2749 -3.3763
LeftUpLeg -3.612357475 0.4363539667 6.967231606
LeftLeg 16.52087926 0 0
LeftFoot -8.606006859 -12.70225443 -8.02114274
LeftToes 8.82235e-011 9.04645e-011 1.87288e-011
453
root 10.30673092 39.2327 4.362298388 -177.5585257 -52.65290689 177.57776
RightUpLeg -29.55448006 -3.651600554 -0.1878148368
RightLeg 25.76659529 4.542231897 -1.623652986
RightFoot 0.185480988 6.738552038 3.199410667
RightToes 2.32829e-010 -1.59028e-015 9.93923e-017
Spine -7.65058 -5.2852 -9.75784
Spine1 11.3122 -6.21112 4.32768
HEad -8.52028 4.71785 1.51934
LeftShoulder1 9.93923e-017 0 1.22299e-017
LeftArm 29.4603 14.1658 -76.6241
LeftForeArm -47.981 -30.6495 19.0576
LeftHand 0.885736 6.13897 -2.34913
RightShoulder 1.98785e-016 -4.96962e-017 1.55301e-017
RightArm 27.6383 -62.1936 77.3537
RightForeArm -41.7608 19.1113 -8.25781
RightHand 1.03651 -10.1069 -3.19424
LeftUpLeg -2.138319547 -0.1887844444 7.35743307
LeftLeg 17.54842492 0 0
LeftFoot -10.71658223 -13.18361433 -6.796511734
LeftToes 8.82235e-011 9.04645e-011 1.87288e-011
454
root 9.194632816 39.0802 3.445664451 -177.4534774 -53.8114213 177.7566903
RightUpLeg -29.01863919 -0.8682116624 -0.8670954692
RightLeg 13.73602365 2.034119369 -0.5398204452
RightFoot 1.73360528 5.519354318 3.324539517
RightToes 2.32829e-010 -1.59028e-015 9.93923e-017
Spine -8.6081 -5.6719 -9.68894
Spine1 12.1741 -6.65675 4.99614
HEad -8.60171 4.91217 1.54686
LeftShoulder1 9.93923e-017 0 1.22299e-017
LeftArm 29.7915 11.8395 -76.3575
LeftForeArm -47.9949 -30.8542 19.1422
LeftHand 0.888198 6.19945 -2.12654
RightShoulder 1.98785e-016 -4.96962e-017 1.55301e-017
RightArm 26.0322 -63.0557 75.5544
RightForeArm -39.6685 18.7275 -7.09118
RightHand 1.04538 -10.2148 -3.06739
LeftUpLeg -0.407402194 -0.6296082011 7.931223154
LeftLeg 17.76536566 0 0
LeftFoot -12.10219915 -14.00682469 -6.451054285
LeftToes 8.82235e-011 9.04645e-011 1.87288e-011
455
root 8.00068529 38.8762 2.524456416 -177.0712847 -55.22267302 177.5731269
RightUpLeg -28.50697671 2.505563759 -2.35342909
RightLeg 3.683614854 -0.6239778571 0.5671151465
RightFoot 1.912535613 4.577779209 3.558825676
RightToes 2.32829e-010 -1.59028e-015 9.93923e-017
Spine -9.49751 -6.05755 -10.1279
Spine1 12.8917 -7.15563 5.92882
HEad -8.55562 5.05889 1.51876
LeftShoulder1 9.93923e-017 0 1.22299e-017
LeftArm 29.9484 10.6982 -76.4209
LeftForeArm -47.6176 -30.435 18.9857
LeftHand 0.867906 6.04462 -1.99351
RightShoulder 1.98785e-016 -4.96962e-017 1.55301e-017
RightArm 23.3053 -63.3984 74.2572
RightForeArm -36.4712 18.0456 -5.27696
RightHand 1.09058 -10.5989 -3.03782
LeftUpLeg 1.200822171 -0.7527701039 8.586149492
LeftLeg 18.31999031 0 0
LeftFoot -12.76276148 -15.81576981 -7.52375377
LeftToes 8.82235e-011 9.04645e-011 1.87288e-011
